<?xml version="1.0" encoding="UTF-8"?>
<svg id="Layer_1" data-name="Layer 1" xmlns="http://www.w3.org/2000/svg" viewBox="0 0 1728 1296">
  <defs>
    <style>
      .cls-1 {
        fill: none;
      }

      .cls-1, .cls-2, .cls-3, .cls-4 {
        stroke-width: 0px;
      }

      .cls-3 {
        fill: #596f59;
      }

      .cls-4 {
        fill: #010101;
      }
    </style>
  </defs>
  <path class="cls-4" d="m1322,947.9c43.22-16.26,85.78-32.28,128.33-48.29v-67.6h-15.03v56.93c-3.66,1.44-7,2.8-10.37,4.08-39.04,14.86-78.09,29.69-117.11,44.62-2.83,1.08-5.36,1.19-8.2.19-4.15-1.47-8.4-2.63-12.57-4.62,45.42-17.29,90.84-34.58,136.4-51.92v-49.25H245.33v49.22c47.62,18.13,95.29,36.28,142.97,54.43,0,.24.01.48.02.73-5.94,1.54-11.87,3.09-17.99,4.68-45.5-17.32-91.07-34.66-136.86-52.09v-56.98h-14.9v67.59c42.52,16,85.1,32.02,128.63,48.39-9.6,2.12-18.21,4.04-26.83,5.93-2.9.64-5.91.91-8.68,1.89-6.07,2.15-11.59,1.13-17.51-1.15-32.07-12.33-64.28-24.31-96.44-36.42-1.25-.47-2.48-1.01-3.92-1.6v-109.49h1281.32v109.58c-10.14,3.81-20.35,7.64-30.56,11.48-25.1,9.43-50.2,18.88-75.32,28.26-1.56.58-3.44,1.07-4.99.75-13.33-2.77-26.62-5.73-39.91-8.64-.52-.11-1.03-.31-2.34-.72Z"/>
  <path class="cls-3" d="m832.14,929.19h4.31c5.68,9.03,10.23,18.63,14.17,28.52,13.24,33.19,23.63,67.3,32.32,101.93,5.99,23.87,11.65,47.82,17.45,71.74.06.26.04.53.08,1.07-1.24.54-2.55,1.19-3.9,1.7-19.53,7.37-39.07,14.71-58.61,22.07-2.05.77-3.93,1.16-6.21.29-20.39-7.76-40.84-15.38-61.26-23.04-.62-.23-1.2-.58-2.22-1.09,1.12-4.79,2.13-9.61,3.37-14.38,9.41-36.2,18.49-72.49,28.45-108.54,6.67-24.16,15.6-47.59,26.64-70.15,1.65-3.38,3.55-6.64,5.42-10.11Z"/>
  <path class="cls-4" d="m175.72,680.09c-.6-35.29,23.83-64.73,61.82-69.47,19.19-2.39,37.48.2,54.05,10.66,18.84,11.9,28.84,29.37,30.96,51.4,1.29,13.39-.43,26.38-6.23,38.63-7.83,16.55-20.53,27.96-37.62,34.2-19.46,7.11-39.18,7.13-58.64.02-29.24-10.68-44.96-37.22-44.34-65.46Zm108.87.29c.06-23.94-19.38-40.31-42.74-35.6-20.31,4.1-29.8,22.23-27.63,40.11,2.41,19.89,17.1,31.77,35.74,31.51,20.39-.29,34.58-15.44,34.63-36.02Z"/>
  <path class="cls-4" d="m1172.95,680.69c-.56,41.17-29.4,65.52-63.03,69.29-17.49,1.96-34.25-.24-49.71-8.94-22.33-12.57-33.41-32.17-34.61-57.52-.82-17.3,3.44-33.18,14.24-46.95,11.56-14.75,27.1-22.83,45.36-25.68,16.6-2.59,32.9-1.21,48.25,6.09,23.72,11.27,36.48,30.3,38.99,56.32.22,2.28.32,4.57.51,7.39Zm-38.5,0c.16-26.97-22.91-41.53-45.57-35.23-16.22,4.51-26.39,19.84-24.95,37.92,1.5,18.83,14.88,32.95,35.58,33.05,20.07.1,34.79-15.28,34.94-35.74Z"/>
  <path class="cls-4" d="m1373.34,676.05v71.18h-35.29v-133.78h32.29c16.75,22.83,33.71,45.93,50.66,69.03l.83-.29v-68.74h35.38v133.65h-30.49c-17.26-23.53-34.8-47.43-52.34-71.33-.35.09-.7.19-1.04.28Z"/>
  <path class="cls-4" d="m1276.13,682.15v-68.75h35.31v133.76h-30.5c-17.37-23.67-34.89-47.55-52.42-71.43-.26.08-.53.17-.79.25v71.17h-35.42v-133.75h32.15c16.69,22.74,33.66,45.87,50.64,69l1.03-.25Z"/>
  <path class="cls-4" d="m779.3,613.33h35.5v133.82h-30.5c-17.37-23.67-34.89-47.55-52.42-71.43-.26.08-.53.17-.79.25v71.17h-35.42v-133.75h32.15c16.69,22.74,33.66,45.87,50.63,68.99.28-.05.56-.11.84-.16v-68.9Z"/>
  <path class="cls-4" d="m443.71,613.18c18.1,0,35.9-.12,53.7.07,5.63.06,11.33.55,16.86,1.59,28.94,5.39,49.38,27.89,52.24,57.13,1.97,20.11-2.46,38.35-16.13,53.68-10.97,12.3-25.05,18.85-41.24,20.97-4.66.61-9.4.75-14.11.77-17,.09-33.99.03-51.31.03v-134.25Zm36.81,100.08c7.45,0,14.57.33,21.65-.11,5.14-.32,9.95-2.4,14.1-5.59,10.96-8.41,14.2-19.88,12.48-33.02-1.64-12.57-8.44-21.42-20.49-25.68-8.96-3.17-18.3-1.74-27.74-2.03v66.43Z"/>
  <path class="cls-4" d="m1678.85,699.29c8.67,15.88,17.29,31.69,26.15,47.91h-41.17c-7.07-13.37-14.23-26.91-21.4-40.48h-13.31v40.45h-36.73v-133.75c1.12-.09,2.15-.23,3.19-.23,18.89-.01,37.78-.08,56.67,0,21.45.1,39.61,12.94,45.32,32.54,4.83,16.58,2.61,32.08-9.3,45.32-2.67,2.97-6.04,5.31-9.42,8.23Zm-49.45-53.02v29.61c7.52-.39,14.83-.14,21.91-1.3,7.14-1.16,10.98-7.43,10.58-14.99-.36-6.95-4.89-12.57-11.84-13.2-6.76-.61-13.63-.13-20.65-.13Z"/>
  <path class="cls-3" d="m844.37,929.32c7.63-.85,14.54.11,21.53,3.61,32.57,16.3,63.02,35.86,91.67,58.28,32.16,25.17,61.62,53.27,89.85,82.7.63.66,1.13,1.44,2.08,2.66-29,10.91-57.63,21.68-86.34,32.48-33.53-64.12-68.59-126.73-118.81-179.74Z"/>
  <path class="cls-3" d="m824.76,929.09c-5.73,6.16-11.09,11.47-15.96,17.2-23.54,27.74-44.01,57.69-62.35,89.04-13.4,22.9-25.72,46.43-38.51,69.68-.64,1.17-1.29,2.34-2.22,4.04-28.74-10.8-57.4-21.57-86.65-32.56,4.58-4.83,8.74-9.35,13.05-13.72,33.49-33.99,68.95-65.69,108.2-92.97,20.96-14.57,43.04-27.2,66.01-38.36,5.89-2.86,11.7-2.19,18.43-2.36Z"/>
  <path class="cls-4" d="m119.23,613.36h36.94v133.83h-36.73v-51.17h-40.64v51.12h-36.95v-133.64h36.71v47.98h40.67v-48.13Z"/>
  <path class="cls-4" d="m1014.24,666.93h-36.7c-1.46-2.76-2.67-5.48-4.26-7.96-11.49-17.95-36.81-19.67-50.68-3.5-12.09,14.09-11.53,38.08,1.36,51.24,14.37,14.67,41.89,13.06,51.59-10.04.62-1.48,1.12-3.02,1.76-4.77h37.7c-4.01,23.44-15.49,41.29-36.84,51.78-27.6,13.55-62.42,7.44-83.66-14.57-14.21-14.72-19.76-32.79-18.75-52.97,1.76-34.89,26.49-61.38,61.24-65.55,22.86-2.75,43.1,2.98,59.6,19.59,9.5,9.56,14.98,21.3,17.62,34.42.13.63.02,1.32.02,2.33Z"/>
  <path class="cls-3" d="m885.36,929.43c19.37-1.08,37.81,2.65,56.29,6.56,85.04,18.02,165.97,47.76,244.32,84.97,1.21.58,2.4,1.21,3.59,1.84.23.12.39.36.85.79-29.12,10.95-58.08,21.84-87.25,32.82-64.49-56.08-135.56-100.89-217.79-126.98Z"/>
  <path class="cls-3" d="m782.68,929.05c-81.47,26.79-152.56,70.96-216.89,127.39-28.86-10.85-57.82-21.74-87.44-32.88,1.43-.87,2.32-1.53,3.3-2,68.9-33.12,140.12-59.97,214.4-78.32,20.11-4.97,40.43-9.18,60.81-12.91,8.41-1.54,17.21-.92,25.83-1.28Z"/>
  <path class="cls-4" d="m1564.34,664.91v30.06h-43.81v20.32h50.2v31.85h-86.77v-133.73h85.11v31.43h-48.5v20.08h43.77Z"/>
  <path class="cls-4" d="m586.99,613.31h85.21v31.48h-48.46v20.08h43.64v30.22h-43.68v20.16h50.16v31.87h-86.87v-133.8Z"/>
  <path class="cls-3" d="m671.01,933.25c-83.42,13.4-164.04,36.47-241.46,71.94-27.82-10.46-55.89-21.01-83.96-31.56,107.26-23.62,215.98-34.43,325.42-40.38Z"/>
  <path class="cls-3" d="m1323.42,973.57c-19.15,7.19-38.29,14.38-57.44,21.58-7.94,2.98-15.9,5.91-23.8,9.01-2.19.86-4.05.8-6.17-.18-57.05-26.36-116.47-45.64-177.81-59.03-19.96-4.36-40.07-7.99-59.53-11.85,108.75,6.08,217.54,16.97,324.75,40.48Z"/>
  <path class="cls-4" d="m379.17,713.72h47.56v33.44h-84.28v-133.74h36.72v100.3Z"/>
  <path class="cls-2" d="m948.9,455.23c.02-.31.04-.63.01-.19.27-.33.09-.1-.1.12,0,0,.08.07.08.07Z"/>
  <path class="cls-2" d="m717.92,455.19c-.17-.22-.34-.43-.1-.13-.03-.38,0-.09.02.2l.09-.07Z"/>
  <path class="cls-2" d="m875.48,432.15c-.06-.31-.12-.61-.02-.12-.04-.53-.02-.25,0,.04l.02.08Z"/>
  <path class="cls-2" d="m875.48,381.13c-.06-.31-.12-.61-.02-.11-.04-.53-.02-.25,0,.04l.02.08Z"/>
  <path class="cls-2" d="m885.65,375.82c-.18-.19-.35-.37-.14-.15-.06-.3,0-.03.04.23,0,0,.1-.08.1-.08Z"/>
  <path class="cls-2" d="m781.17,375.86c.07-.25.15-.51.06-.21.24-.2.04-.04-.15.12,0,0,.09.08.09.08Z"/>
  <path class="cls-2" d="m875.31,328.34c.03-.24.05-.48.09-.72-.04.2-.09.41-.13.61l.05.1Z"/>
  <g>
    <path class="cls-4" d="m1194.5,483.56v-5.32h10.07v6.1c0,4.84,2.13,6.58,5.51,6.58s5.52-1.74,5.52-6.58v-15.19c0-4.84-2.13-6.68-5.52-6.68s-5.51,1.84-5.51,6.68v.58h-10.07l1.94-37.84h28.07v9.68h-18.58l-.87,16.16h.19c1.94-3.19,4.94-4.94,9.2-4.94,7.84,0,11.81,5.52,11.81,15.48v15.29c0,10.84-5.42,17.03-15.87,17.03s-15.87-6.19-15.87-17.03Z"/>
    <path class="cls-4" d="m1232.63,483.56v-1.26h10.07v1.94c0,4.84,2.13,6.68,5.51,6.68,3.78,0,5.9-1.84,5.9-8.32v-12.97h-.19c-1.84,3.87-4.94,5.9-9.68,5.9-7.84,0-11.81-5.52-11.81-15.48v-12.1c0-10.84,5.71-17.03,16.16-17.03s16.16,6.19,16.16,17.03v35.03c0,11.42-5.22,17.61-16.26,17.61-10.45,0-15.87-6.19-15.87-17.03Zm21.48-24.39v-12c0-4.45-1.84-6.58-5.51-6.58s-5.52,2.13-5.52,6.58v12c0,4.55,1.84,6.68,5.52,6.68s5.51-2.13,5.51-6.68Z"/>
    <path class="cls-4" d="m1275.7,442.14h-3.48v-10.26h10.26v9.19l-5.9,12.68h-4.94l4.06-11.61Z"/>
  </g>
  <g>
    <path class="cls-4" d="m431.53,431.88h29.03v9.68h-18.39v17.91h14.61v9.68h-14.61v20.81h18.39v9.68h-29.03v-67.75Z"/>
    <path class="cls-4" d="m465.01,483.56v-3.87h10.06v4.65c0,4.84,2.13,6.58,5.52,6.58s5.51-1.74,5.51-6.77c0-5.61-2.13-9.19-9.1-15.29-8.9-7.84-11.81-13.35-11.81-21.1,0-10.64,5.52-16.84,15.87-16.84s15.48,6.19,15.48,17.03v2.81h-10.07v-3.48c0-4.84-1.94-6.68-5.32-6.68s-5.32,1.84-5.32,6.48c0,4.94,2.23,8.52,9.2,14.61,8.9,7.84,11.71,13.26,11.71,21.68,0,11.03-5.61,17.23-16.07,17.23s-15.68-6.19-15.68-17.03Z"/>
    <path class="cls-4" d="m511.17,441.56h-11.13v-9.68h32.91v9.68h-11.13v58.07h-10.64v-58.07Z"/>
    <path class="cls-4" d="m531.01,489.37h10.26v10.26h-10.26v-10.26Z"/>
  </g>
  <path class="cls-1" d="m753.9,519.07h72.67v-.07h-72.67v.07Z"/>
  <path class="cls-1" d="m838.89,519.12h73.4v-.12h-73.4v.12Z"/>
  <path class="cls-2" d="m717.83,455.26s.06.02.09.03c0-.03,0-.06,0-.1l-.09.07Z"/>
  <path class="cls-2" d="m781.08,375.78c0,.06,0,.12-.01.18.03-.03.07-.06.1-.1l-.09-.08Z"/>
  <path class="cls-3" d="m929.82,504.46c3.06-1.97,6.32-3.64,9.27-5.76,5.86-4.22,8.79-10.07,8.83-17.32.03-5.39-.1-10.79.04-16.18.09-3.29.54-6.58.84-9.86-1.9,1.95-3.73,3.99-5.73,5.83-3.08,2.82-6.28,5.52-9.45,8.24-4.62,3.96-9.02,8.1-11.8,13.88v-12.16c1.96-1.42,4.37-3.31,6.92-4.99,3.6-2.36,7.45-4.36,10.93-6.89,5.48-3.98,8.05-9.64,8.23-16.36.1-3.64-.09-7.29.04-10.92.19-5.48.54-10.96.77-15.38-6.12,5.59-13.23,11.79-19.96,18.37-2.71,2.65-4.59,6.15-7.02,9.5v-13.2c1.66-1.29,3.65-3.08,5.86-4.52,3.16-2.05,6.56-3.74,9.72-5.79,7.11-4.58,10.65-11.07,10.66-19.65.01-8.59-1.01-17.25,1.28-25.29-6.88,6.3-14.11,12.65-20.99,19.36-2.51,2.45-4.19,5.75-6.59,9.15-.19-6.14-.95-11.67,2.74-16.91,3.86-5.47,6.39-11.66,4.97-18.6-.56-2.72-1.57-5.44-2.86-7.91-3.01-5.72-6.3-11.29-9.52-16.89-.59-1.03-1.37-1.94-2.46-3.47-2.95,8.91-6.14,17.11-8.32,25.57-1.92,7.45-.36,14.92,3.77,21.37,3.22,5.03,2.23,10.17,2.12,15.5-3.36-6.65-9.06-10.94-14.43-15.61-4.19-3.64-8.03-7.68-12.03-11.55.3,8,.85,16.01.82,24.01-.04,9.85,3.94,17.13,12.47,21.99,2.7,1.53,5.42,3.03,8.03,4.7,1.91,1.22,3.68,2.67,5.3,3.87v12.39c-3.93-7.11-10.47-11.5-16.23-16.68-3.77-3.39-7.18-7.17-10.01-10.03.16,6.27.35,13.37.52,20.47.05,2.16,0,4.32.1,6.47.34,7.4,3.68,13.16,9.79,17.25,3.02,2.02,6.25,3.73,9.33,5.66,2.27,1.42,4.44,2.99,6.44,4.35v11.5c-3.61-6.52-9.27-10.86-14.73-15.43-4.44-3.71-8.73-7.62-11.43-9.99.12,4.85.31,12.08.48,19.3.05,1.89,0,3.78.06,5.67.26,8.03,3.81,14.2,10.61,18.46,2.97,1.86,6.08,3.5,9.04,5.37,2.14,1.35,4.15,2.92,6.04,4.26v9.4h9.45v-9.08c2.53-1.72,5.27-3.65,8.08-5.46Z"/>
  <path class="cls-4" d="m834.43,193.48c-213.76,80.4-427.25,160.7-640.53,240.92v109.52h1281.31v-109.43c-213.67-80.37-427.29-160.71-640.78-241.01Zm589.02,325.65h-501.7v-.13h-9.45v.12h-73.4v-.12h-12.32v.07h-72.67v-.07h-9.43v.08H245.28v-49.1c195.79-74.52,391.71-149.08,587.93-223.76,196.63,74.52,393.42,149.11,590.24,223.71v49.2Zm26.9.02h-15.05v-56.97c-200.83-76.12-401.39-152.14-602.09-228.22-199.71,76-399.44,152.02-599.62,228.2v56.97h-15.06v-67.52c205.1-77.15,410.39-154.36,615.9-231.66,205.24,77.2,410.54,154.42,615.92,231.67v67.52Z"/>
  <path class="cls-3" d="m761.76,504.61c2.6-1.68,5.37-3.11,7.98-4.77,6.93-4.4,10.36-10.8,10.46-18.96.04-3.51-.24-7.02-.1-10.52.2-5.36.63-10.72.88-14.84-5.65,5.12-12.36,10.87-18.64,17.05-3.2,3.15-5.65,7.07-8.43,10.62v-12.05c1.99-1.43,4.3-3.25,6.77-4.84,3.06-1.97,6.33-3.61,9.36-5.62,6.67-4.42,10.1-10.7,10.16-18.73.02-2.97-.22-5.94-.11-8.9.2-5.89.56-11.77.79-16.4-5.38,4.88-11.82,10.38-17.84,16.32-3.47,3.42-6.24,7.54-9.24,11.24v-13.08c2.22-1.58,4.76-3.53,7.44-5.27,2.83-1.83,5.85-3.36,8.67-5.2,6.85-4.48,10.27-10.88,10.29-19.06,0-3.24-.24-6.48-.11-9.71.21-5.31.63-10.61.97-15.92-6.91,6.49-13.96,12.84-20.66,19.55-2.58,2.59-4.34,6.01-6.66,9.3-.21-6.28-.96-12.25,3.16-17.77,2.12-2.83,3.51-6.42,4.42-9.88,1.34-5.08.7-10.19-1.92-14.89-3.55-6.35-7.13-12.69-10.74-19.01-.44-.77-1.18-1.38-1.95-2.25-2.65,7.81-5.25,15.28-7.72,22.8-2.8,8.53-1.14,16.67,3.31,24.07,2.89,4.82,2.29,9.65,1.86,14.85-4.39-8.53-12.65-13.08-19.13-19.42-2.59-2.54-4.93-5.34-7.82-8.49,2.52,8.8,1.67,17.33,1.57,25.8-.12,9.23,3.64,16.12,11.5,20.84,2.77,1.67,5.63,3.2,8.36,4.93,2.03,1.28,3.93,2.78,5.85,4.15v12.26c-4.57-8.21-12.61-12.8-19.04-19-2.78-2.68-5.28-5.64-8.27-8.86,2.52,8.51,1.82,16.77,1.57,24.96-.3,10.28,4.07,17.55,12.85,22.55,4.43,2.52,8.72,5.28,12.89,7.83v11.45c-6.34-10.91-18.42-16.11-25.65-26.06-.17-.23-.6-.27-.94-.38.31,8.58.72,17.15.89,25.73.15,7.72,3.19,13.85,9.55,18.2,2.89,1.98,6.02,3.59,8.98,5.46,2.48,1.57,4.88,3.29,7.13,4.81v9.51h9.43v-8.93c2.37-1.66,5.06-3.65,7.86-5.46Z"/>
  <path class="cls-2" d="m885.55,375.91s.07.07.1.1c0-.06,0-.13,0-.19l-.1.08Z"/>
  <path class="cls-3" d="m849.65,497.32c3.39-2.19,7.03-4.01,10.41-6.23,8.91-5.86,13.37-14.19,13.33-24.88-.02-6.07-.41-12.16-.06-18.21.3-5.3,1.38-10.56,2.13-15.84-.72.39-1.57.65-2.14,1.21-5.28,5.19-10.25,10.71-15.8,15.59-7.3,6.42-14.96,12.39-18.65,21.96v-17.05c2.67-1.95,5.6-4.3,8.74-6.32,4.08-2.62,8.42-4.84,12.47-7.49,8.92-5.84,13.32-14.2,13.32-24.88,0-7.69-.21-15.38.1-23.06.15-3.68,1.26-7.33,1.95-10.99-.65.28-1.51.39-1.87.88-5.04,6.76-11.3,12.27-17.82,17.5-6.99,5.61-13.31,11.74-16.83,20.37v-18.65c2.93-2.07,6.24-4.56,9.71-6.8,3.5-2.26,7.23-4.17,10.76-6.39,9.43-5.93,14.09-14.52,14.01-25.67-.03-4.71-.38-9.44-.09-14.13.41-6.64,1.28-13.25,1.95-19.88-.59.4-1.25.73-1.75,1.23-5.45,5.4-10.62,11.12-16.38,16.17-7.14,6.26-14.48,12.21-17.68,22.09-1.99-7.39-.69-16.49,2.49-22.31,2.44-4.47,4.94-9.03,6.47-13.85,2.28-7.23,1.22-14.41-2.53-21.09-4.49-7.99-8.98-15.98-13.54-23.93-.7-1.22-1.79-2.23-2.72-3.36-2.78,8.1-5.07,16.01-8.18,23.58-5.67,13.8-4.42,26.88,3.11,39.49,1.66,2.79,2.44,5.58,2.26,8.79-.18,3.08-.04,6.17-.04,9.29-.54-.06-.93-.02-.98-.13-3.59-7.36-9.57-12.55-15.61-17.81-6.67-5.82-12.92-12.12-18.94-17.82,2.53,8.93,2.16,18.87,1.89,28.84-.1,3.63-.06,7.32.43,10.91,1.03,7.46,4.91,13.38,10.95,17.76,3.38,2.44,7.08,4.43,10.61,6.65,3.86,2.43,7.69,4.91,11.45,7.32v16.91c-.16.06-.33.13-.49.19-.5-.86-.88-1.82-1.51-2.57-3.45-4.11-6.58-8.58-10.52-12.16-7.86-7.12-16.4-13.52-22.78-22.27,2.5,9.79,2.15,19.61,1.87,29.45-.11,3.63-.06,7.31.39,10.91.98,7.79,5.03,13.92,11.41,18.34,4.54,3.14,9.43,5.75,14.1,8.7,2.6,1.65,5.07,3.5,7.54,5.22v16.21c-1.06-1.8-1.5-2.88-2.22-3.73-3.37-4.01-6.43-8.37-10.3-11.83-7.91-7.08-16.41-13.53-22.82-22.26,2.52,9.77,2.17,19.6,1.88,29.44-.11,3.63-.06,7.31.39,10.91.95,7.64,4.88,13.69,11.07,18.11,3.94,2.81,8.27,5.06,12.37,7.65,3.29,2.08,6.48,4.3,9.63,6.39v15.18h12.32v-14.25c3.27-2.27,6.94-4.96,10.76-7.43Z"/>
  <path class="cls-2" d="m948.82,455.16c0,.06-.01.12-.02.18.03-.04.07-.07.1-.11,0,0-.08-.07-.08-.07Z"/>
  <path class="cls-2" d="m875.46,432.07s0,.06-.01.09c.01,0,.02-.01.03-.02,0,0-.02-.08-.02-.08Z"/>
  <path class="cls-2" d="m875.46,381.05s-.01.06-.02.09c.01,0,.03,0,.04-.01l-.02-.08Z"/>
  <path class="cls-2" d="m875.26,328.24s-.01.1-.02.14c.02-.01.04-.03.06-.04l-.05-.1Z"/>
</svg>