<svg id="logo-main" xmlns="http://www.w3.org/2000/svg" viewBox="0 0 1080 432">
  <defs>
    <style>
      .cls-1 {
        fill: #bc2026;
      }

      .cls-2 {
        fill: #2b337d;
      }
    </style>
  </defs>
  <g>
    <g>
      <path class="cls-1" d="M308.49925,137.99773H141.94909s-43.3614,1.14924-43.3614,47.56716c0,46.44348,47.35309,45.28633,47.35309,45.28633H267.43836s7.41263,1.15715,7.97831,12.62193c.57869,11.4528-7.40674,13.18275-7.40674,13.18275H76.9214s-25.67-66.49812,18.81694-123.82385C140.24,75.51221,196.13227,80.09536,196.13227,80.09536S268.00993,75.51221,308.49925,137.99773Z"/>
      <path class="cls-2" d="M88.79036,294.00855H255.35128s43.36139-1.14132,43.36139-47.58886c0-46.43375-47.36283-45.28247-47.36283-45.28247H129.86323s-7.4177-1.15128-7.98644-12.612c-.5736-11.46884,7.41567-13.17687,7.41567-13.17687H320.38019s25.66873,66.48817-18.82608,123.81593c-44.49866,57.31985-100.38886,52.74055-100.38886,52.74055S129.29246,356.48414,88.79036,294.00855Z"/>
    </g>
    <g>
      <path class="cls-2" d="M469.82335,237.09079a8.46558,8.46558,0,0,0-8.46559-8.46558h-44.225a25.43158,25.43158,0,0,1-20.5788-9.77885,26.08874,26.08874,0,0,1-6.27645-17.077V187.90381a27.18242,27.18242,0,0,1,26.85525-27.0022h79.547v25.3962H425.59837a8.46559,8.46559,0,0,0-8.46558,8.46559v0a8.46558,8.46558,0,0,0,8.46558,8.46558h44.225a25.44673,25.44673,0,0,1,20.58,9.77886,26.116,26.116,0,0,1,6.27645,17.077v14.15773a25.43983,25.43983,0,0,1-9.78,20.58,26.09749,26.09749,0,0,1-17.0764,6.27587H390.27754v-25.3962h71.08022a8.46559,8.46559,0,0,0,8.46559-8.46559Z"/>
      <path class="cls-2" d="M599.26922,230.52278h26.85525v13.574a25.4377,25.4377,0,0,1-9.77885,20.57939,26.09813,26.09813,0,0,1-17.0764,6.27644H543.65941a25.43267,25.43267,0,0,1-20.58-9.77943,26.0922,26.0922,0,0,1-6.27528-17.0764v-56.193a27.18242,27.18242,0,0,1,26.85525-27.0022h55.60981a25.71619,25.71619,0,0,1,20.58,9.77943,26.30367,26.30367,0,0,1,6.27529,17.22277v13.42762H599.26922v-8.39595a6.63768,6.63768,0,0,0-6.63767-6.63767H550.29707a6.63767,6.63767,0,0,0-6.63766,6.63767v45.98325a6.63767,6.63767,0,0,0,6.63766,6.63767h42.33448a6.63768,6.63768,0,0,0,6.63767-6.63767Z"/>
      <path class="cls-2" d="M644.78982,244.09677v-56.193a27.18242,27.18242,0,0,1,26.85525-27.0022h55.60981a25.71616,25.71616,0,0,1,20.58,9.77943,26.30367,26.30367,0,0,1,6.27529,17.22277v56.193a25.4377,25.4377,0,0,1-9.77885,20.57939,26.09811,26.09811,0,0,1-17.0764,6.27644H671.64507a25.43264,25.43264,0,0,1-20.58-9.77943A26.09216,26.09216,0,0,1,644.78982,244.09677Zm26.85525-51.16129v45.98325a6.63768,6.63768,0,0,0,6.63767,6.63767h42.33447a6.63767,6.63767,0,0,0,6.63767-6.63767V192.93548a6.63767,6.63767,0,0,0-6.63767-6.63767H678.28274A6.63768,6.63768,0,0,0,671.64507,192.93548Z"/>
      <path class="cls-2" d="M813.86165,188.0496H772.41014V161.0474h41.45151v-.14579h27.00161v.14579h41.59788v27.0022H840.86326v83.04879H813.86165Z"/>
      <path class="cls-2" d="M941.84731,188.0496h-41.4515V161.0474h41.4515v-.14579h27.00162v.14579h41.59787v27.0022H968.84893v83.04879H941.84731Z"/>
    </g>
  </g>
</svg>
