<?xml version="1.0" encoding="utf-8"?>
<!-- Generator: Adobe Illustrator 27.9.0, SVG Export Plug-In . SVG Version: 6.00 Build 0)  -->
<svg version="1.1" id="Layer_1" xmlns="http://www.w3.org/2000/svg" xmlns:xlink="http://www.w3.org/1999/xlink" x="0px" y="0px"
	 viewBox="0 0 1009.12 662.35" style="enable-background:new 0 0 1009.12 662.35;" xml:space="preserve">
<style type="text/css">
	.st0{fill:#27513A;}
	.st1{fill:#D4AF32;}
	.st2{fill:#FFFFFF;}
</style>
<path class="st0" d="M133.42,486.29V70.01c64.83,10.44,119.85,50.55,150.68,105.9V70.05C242.91,33.52,190.84,9,133.42,2.04
	C122.39,0.7,111.16,0,99.77,0H66.11v2.04v20.54v47.43v416.28v49.47v18.49v2.04h33.65c11.39,0,22.62-0.7,33.65-2.04
	c57.41-6.96,109.48-31.48,150.68-68.01V380.39C253.27,435.74,198.25,475.84,133.42,486.29z"/>
<path class="st1" d="M688.1,476.64c-21.94-24.57-39.43-52.31-52.07-82.05v85.53v6.17v67.97c11.04,1.34,22.26,2.04,33.65,2.04h33.65
	v-2.04v-18.49v-43.28C698.08,487.4,693,482.13,688.1,476.64z"/>
<path class="st1" d="M669.68,0c-11.39,0-22.62,0.7-33.65,2.04C586.88,8,541.66,26.82,503.81,55.03C465.97,26.82,420.75,8,371.6,2.04
	C360.57,0.7,349.34,0,337.95,0h-33.65v2.04v20.54v38.56v8.86v5.11v14.75v137.01v102.55v137.02v14.75v5.1v8.86v40.61v18.49v2.04
	h33.65c11.39,0,22.62-0.7,33.65-2.04v-67.97v-6.17v-79.17v-26.91v-36.85V219.11v-36.85v-26.91V70.01
	c52.02,8.38,97.72,35.86,129.68,74.99c0.69,1.25,1.39,2.49,2.06,3.75c0.15-0.2,0.31-0.39,0.47-0.59c0.15,0.2,0.32,0.39,0.47,0.59
	c0.67-1.26,1.37-2.5,2.06-3.75c31.96-39.13,77.67-66.61,129.68-74.99v91.7c12.64-29.74,30.14-57.49,52.07-82.05
	c4.9-5.49,9.99-10.76,15.24-15.84V22.58V2.04V0H669.68z"/>
<path class="st0" d="M910.65,0c-11.39,0-22.62,0.7-33.65,2.04c-58.72,7.11-111.84,32.6-153.46,70.51c-3.45,3.14-6.81,6.36-10.1,9.67
	c-3.45,3.48-6.83,7.03-10.1,10.69c-34.71,38.8-58.7,87.36-67.31,141.01c-2.31,14.41-3.53,29.18-3.53,44.23
	c0,15.05,1.21,29.82,3.53,44.23c8.61,53.64,32.6,102.21,67.31,141.01c3.27,3.65,6.64,7.21,10.1,10.69c3.28,3.31,6.65,6.53,10.1,9.67
	c41.62,37.91,94.75,63.4,153.46,70.51c11.04,1.34,22.26,2.04,33.65,2.04h33.65v-2.04v-18.49v-49.47V341.76v-1.3v-66.01v-1.27v-0.03
	h-76.48h-49.47h-18.49h-2.04v33.65c0,11.39,0.7,22.62,2.04,33.65h67.97H874h2.99v1.3v144.53
	c-66.83-10.77-123.24-53.06-153.46-111.07c-3.78-7.26-7.17-14.77-10.1-22.49c-4.39-11.57-7.79-23.63-10.1-36.07
	c-2.31-12.49-3.53-25.36-3.53-38.51s1.21-26.02,3.53-38.51c2.3-12.44,5.7-24.49,10.1-36.07c2.93-7.73,6.31-15.23,10.1-22.49
	c30.22-58.02,86.64-100.3,153.46-111.07v159.26h67.31V70.01V22.58V2.04V0H910.65z"/>
<g>
	<path class="st0" d="M31.13,657.06c-4.02,3.25-9.48,4.88-16.37,4.88H0v-38.94h16.94c6.78,0,11.95,1.76,15.51,5.28
		c3.45,3.41,5.17,8.16,5.17,14.24C37.62,648.78,35.45,653.62,31.13,657.06z M28.48,631.79c-2.53-2.53-6.39-3.79-11.6-3.79H5.51
		v28.94h9.42c5.51,0,9.75-1.21,12.72-3.65c2.97-2.43,4.45-6.02,4.45-10.77C32.1,637.79,30.9,634.21,28.48,631.79z"/>
	<path class="st0" d="M64.43,643.57v18.38h-5.51v-18.38l-20.16-20.56h7.29l15.56,15.79l15.62-15.79h7.24L64.43,643.57z"/>
	<path class="st0" d="M118.3,661.95L92,631.74v30.21h-5.51v-38.94h4.94c3.33,3.98,7.75,9.07,13.27,15.28
		c6.66,7.46,11.03,12.39,13.09,14.76v-30.04h5.51v38.94H118.3z"/>
	<path class="st0" d="M163.67,661.95l-5.57-11.49h-19.18l-5.69,11.49h-6.2l19.53-38.94h4.31l18.84,38.94H163.67z M148.68,631.11
		l-7.24,14.36h14.24L148.68,631.11z"/>
	<path class="st0" d="M191.35,662.35c-5.21,0-9.46-0.88-12.75-2.64c-4.21-2.3-6.32-5.9-6.32-10.8v-2.53h5.57v2.35
		c0,5.74,4.52,8.61,13.55,8.61c3.29,0,5.97-0.46,8.04-1.38c2.45-1.03,3.68-2.58,3.68-4.65c0-1.49-0.38-2.58-1.15-3.27
		c-0.77-0.69-2.12-1.3-4.08-1.84c-1.15-0.31-3.85-0.88-8.1-1.72c-5.02-1-8.44-1.93-10.28-2.81c-3.94-1.88-5.92-4.71-5.92-8.5
		c0-7.04,5.55-10.57,16.65-10.57c11.56,0,17.42,4.73,17.57,14.19h-5.4c-0.27-4.06-1.46-6.62-3.56-7.7c-1.88-1-4.75-1.49-8.61-1.49
		c-7.43,0-11.14,1.86-11.14,5.57c0,1.76,0.88,3.08,2.64,3.96c1.45,0.69,4,1.34,7.64,1.95c7.12,1.19,11.91,2.47,14.36,3.85
		c3.25,1.84,4.88,4.67,4.88,8.5c0,3.87-2.05,6.76-6.14,8.67C199.39,661.6,195.68,662.35,191.35,662.35z"/>
	<path class="st0" d="M233.44,628v33.94h-5.51V628H213v-5h35.32v5H233.44z"/>
	<path class="st0" d="M272.84,643.57v18.38h-5.51v-18.38l-20.16-20.56h7.29l15.56,15.79l15.62-15.79h7.24L272.84,643.57z"/>
	<path class="st0" d="M360.19,661.95v-27.45l-14.87,27.45h-3.96l-14.87-27.45v27.45h-5.51v-38.94h5.4l16.94,31.3l17-31.3h5.4v38.94
		H360.19z"/>
	<path class="st0" d="M406.13,661.95l-5.57-11.49h-19.18l-5.69,11.49h-6.2l19.53-38.94h4.31l18.84,38.94H406.13z M391.14,631.11
		l-7.24,14.36h14.24L391.14,631.11z"/>
	<path class="st0" d="M447.82,661.95l-26.3-30.21v30.21h-5.51v-38.94h4.94c3.33,3.98,7.75,9.07,13.27,15.28
		c6.66,7.46,11.03,12.39,13.09,14.76v-30.04h5.51v38.94H447.82z"/>
	<path class="st0" d="M493.19,661.95l-5.57-11.49h-19.18l-5.69,11.49h-6.2l19.53-38.94h4.31l18.84,38.94H493.19z M478.2,631.11
		l-7.24,14.36h14.24L478.2,631.11z"/>
	<path class="st0" d="M539.19,646.67h-16.65v-5.05h21.94c0.23,2.03,0.34,3.43,0.34,4.19c0,5.32-2.12,9.5-6.38,12.52
		c-3.79,2.68-8.48,4.02-14.07,4.02c-6.81,0-12.25-1.68-16.31-5.05c-4.25-3.48-6.37-8.38-6.37-14.7c0-6.12,2.03-10.99,6.09-14.59
		c4.06-3.6,9.46-5.4,16.19-5.4c5.01,0,9.21,0.96,12.58,2.87c3.94,2.22,6.6,6.37,7.98,12.46h-5.63c-0.88-3.64-2.5-6.27-4.85-7.9
		c-2.35-1.63-5.7-2.44-10.02-2.44c-5.28,0-9.4,1.32-12.35,3.96s-4.42,6.3-4.42,10.97c0,4.75,1.49,8.4,4.48,10.97
		c2.99,2.57,7.2,3.85,12.63,3.85c4.14,0,7.63-0.98,10.48-2.93C537.71,652.47,539.15,649.89,539.19,646.67z"/>
	<path class="st0" d="M552.34,661.95v-38.94h32.22v5H557.8v11.2h23.72v5H557.8v12.75h27.05v5H552.34z"/>
	<path class="st0" d="M629.7,661.95v-27.45l-14.87,27.45h-3.96l-14.87-27.45v27.45h-5.51v-38.94h5.4l16.94,31.3l17-31.3h5.4v38.94
		H629.7z"/>
	<path class="st0" d="M643.25,661.95v-38.94h32.22v5h-26.76v11.2h23.72v5h-23.72v12.75h27.05v5H643.25z"/>
	<path class="st0" d="M713.2,661.95l-26.3-30.21v30.21h-5.51v-38.94h4.94c3.33,3.98,7.75,9.07,13.27,15.28
		c6.66,7.46,11.03,12.39,13.09,14.76v-30.04h5.51v38.94H713.2z"/>
	<path class="st0" d="M743.46,628v33.94h-5.51V628h-14.93v-5h35.32v5H743.46z"/>
	<path class="st0" d="M825.41,646.67h-16.65v-5.05h21.94c0.23,2.03,0.34,3.43,0.34,4.19c0,5.32-2.12,9.5-6.38,12.52
		c-3.79,2.68-8.48,4.02-14.07,4.02c-6.81,0-12.25-1.68-16.31-5.05c-4.25-3.48-6.37-8.38-6.37-14.7c0-6.12,2.03-10.99,6.09-14.59
		c4.06-3.6,9.46-5.4,16.2-5.4c5.01,0,9.21,0.96,12.58,2.87c3.94,2.22,6.6,6.37,7.98,12.46h-5.63c-0.88-3.64-2.5-6.27-4.85-7.9
		c-2.35-1.63-5.7-2.44-10.02-2.44c-5.28,0-9.4,1.32-12.35,3.96s-4.42,6.3-4.42,10.97c0,4.75,1.49,8.4,4.48,10.97
		c2.99,2.57,7.2,3.85,12.63,3.85c4.14,0,7.63-0.98,10.48-2.93C823.93,652.47,825.37,649.89,825.41,646.67z"/>
	<path class="st0" d="M868.54,642.94c2.99,1.88,4.48,4.71,4.48,8.5v10.51h-5.51v-10.34c0-3.98-3.14-5.97-9.42-5.97h-14.01v16.31
		h-5.51v-38.94h20.04c9.99,0,14.99,3.6,14.99,10.8C873.59,637.9,871.91,640.95,868.54,642.94z M858.72,628h-14.64v12.58h13.72
		c3.06,0,5.49-0.52,7.29-1.55c1.99-1.15,2.99-2.83,2.99-5.05C868.08,630,864.96,628,858.72,628z"/>
	<path class="st0" d="M917.84,657.01c-3.96,3.56-9.31,5.34-16.05,5.34c-6.78,0-12.13-1.77-16.05-5.31
		c-3.92-3.54-5.89-8.38-5.89-14.5c0-6.12,2.01-10.91,6.03-14.36c3.87-3.33,9.17-5,15.91-5c6.74,0,12.06,1.67,15.96,5
		c4.02,3.45,6.03,8.23,6.03,14.36C923.79,648.62,921.8,653.45,917.84,657.01z M913.97,631.88c-2.87-2.47-6.93-3.7-12.17-3.7
		c-5.25,0-9.29,1.24-12.12,3.73c-2.83,2.49-4.25,6.03-4.25,10.62c0,4.59,1.44,8.21,4.31,10.85c2.87,2.64,6.89,3.96,12.06,3.96
		c5.24,0,9.3-1.31,12.17-3.93c2.87-2.62,4.31-6.25,4.31-10.88C918.27,637.9,916.84,634.35,913.97,631.88z"/>
	<path class="st0" d="M961.4,658.84c-2.91,2.34-7.27,3.5-13.09,3.5c-11.95,0-17.92-5.13-17.92-15.39v-23.95h5.51v23.95
		c0,3.52,0.98,6.14,2.96,7.84c1.97,1.7,5.12,2.55,9.45,2.55c4.29,0,7.45-0.86,9.48-2.58c1.95-1.61,2.93-4.15,2.93-7.64v-24.12h5.51
		v24.06C966.23,652.35,964.62,656.28,961.4,658.84z"/>
	<path class="st0" d="M1003.55,643.68c-2.83,1.57-6.36,2.36-10.57,2.36h-13.21v15.91h-5.51v-38.94h19.35
		c10.34,0,15.51,3.89,15.51,11.66C1009.12,638.65,1007.27,641.65,1003.55,643.68z M993.96,628h-14.18v13.04h14.24
		c2.76,0,5-0.54,6.72-1.61c1.88-1.15,2.81-2.72,2.81-4.71C1003.55,630.24,1000.36,628,993.96,628z"/>
</g>
</svg>
