<?xml version="1.0" encoding="utf-8"?>
<!-- Generator: Adobe Illustrator 27.9.0, SVG Export Plug-In . SVG Version: 6.00 Build 0)  -->
<svg version="1.1" id="Layer_1" xmlns="http://www.w3.org/2000/svg" xmlns:xlink="http://www.w3.org/1999/xlink" x="0px" y="0px"
	 viewBox="0 0 324 55.87" style="enable-background:new 0 0 324 55.87;" xml:space="preserve">
<style type="text/css">
	.st0{fill:#FFFFFF;}
</style>
<g>
	<path d="M220.13,55.87h-8.91V0h8.91V55.87z M271.56,32.3V21.64h-36.37c0.48-5.68,2.58-8.52,6.29-8.52h29.88V0h-27.99
		c-11.1,0-16.66,7.85-16.66,23.56v10.67h36.27c-0.29,2.72-0.94,4.79-1.96,6.22c-1.02,1.43-2.43,2.15-4.24,2.15h-30.07v13.26h28.18
		C266.01,55.87,271.56,48.01,271.56,32.3 M324,42.6h-37.48v-8.37h31.81v-12.6h-31.33c0.52-2.72,1.48-4.82,2.88-6.3
		c1.4-1.48,3.46-2.22,6.17-2.22H324V0h-28.13c-2.81,0-5.34,0.64-7.6,1.92c-2.26,1.28-4.18,3.14-5.76,5.56
		c-1.58,2.42-2.79,5.33-3.63,8.74c-0.84,3.41-1.26,7.26-1.26,11.56v28.08H324V42.6z M202.82,55.87h2.69V42.6H168.8V28.08
		c0-9.98,3.18-14.97,9.54-14.97h27.16V0h-27.36c-2.91,0-5.49,0.63-7.75,1.89c-2.26,1.26-4.17,3.09-5.74,5.48
		c-1.57,2.4-2.75,5.31-3.56,8.74s-1.21,7.32-1.21,11.67v28.08h40.86H202.82z M155,42.6h-37.48v-8.37h31.81v-12.6h-31.33
		c0.52-2.72,1.48-4.82,2.88-6.3c1.4-1.48,3.46-2.22,6.17-2.22H155V0h-28.13c-2.81,0-5.34,0.64-7.6,1.92
		c-2.26,1.28-4.18,3.14-5.76,5.56c-1.58,2.42-2.79,5.33-3.63,8.74c-0.84,3.41-1.26,7.26-1.26,11.56v28.08H155V42.6z M8.91,13.12
		h31.04c-0.29,2.76-0.94,4.88-1.96,6.33c-1.02,1.46-2.43,2.19-4.24,2.19H13.02v12.6h18.84c11.1,0,16.66-7.85,16.66-23.56V0H0v55.86
		h8.91V13.12z M62.95,13.12h31.04c-0.29,2.76-0.94,4.88-1.96,6.33c-1.02,1.46-2.43,2.19-4.24,2.19H67.07v12.6h11.09l14.09,21.63H103
		L89.1,34.01c8.97-1.43,13.46-9.21,13.46-23.34V0H54.04v55.86h8.91V13.12z"/>
</g>
</svg>
